# xmcd
#
# Track frame offsets: 
#        150
#        13278
#        26679
#        49223
#        74891
#        108075
#        124209
#        150415
#        166475
#        180901
#        200700
#        245485
#        263730
#        289490
#
# Disc length: 4261 seconds
#
# Revision: 0
# Processed by: cddbd v1.4PL0 Copyright (c) Steve Scherf et al.
# Submitted via: ExactAudioCopy v0.90b4
#
DISCID=cf10a30e
DTITLE=Van Morrison - Harvest of Blues
DYEAR=1998
DGENRE=Blues
TTITLE0=Baby Please Don't Go
TTITLE1=TV Mama
TTITLE2=A Change is Gonna Come
TTITLE3=Help Me
TTITLE4=Take Your Hand Out Of My Pocket,Little Red Rooster,Early in th
TTITLE4=e Morning
TTITLE5=Fever
TTITLE6=Georgia On My Mind
TTITLE7=Shake Rattle and Roll
TTITLE8=I Put A Spell On You
TTITLE9=It Fills You Up
TTITLE10=It's A Man's World/When The Clock Strikes Twelve
TTITLE11=Shenandoah
TTITLE12=Irish Hearbeat
TTITLE13=The Healing Game
EXTD=
EXTT0=
EXTT1=
EXTT2=
EXTT3=
EXTT4=
EXTT5=
EXTT6=
EXTT7=
EXTT8=
EXTT9=
EXTT10=
EXTT11=
EXTT12=
EXTT13=
PLAYORDER=
